<svg width="48" height="48" viewBox="0 0 48 48" fill="none" xmlns="http://www.w3.org/2000/svg">
<g clip-path="url(#clip0_7_20)">
<path d="M24 0C10.7464 0 0 10.7464 0 24C0 37.2535 10.7464 48 24 48C37.2535 48 48 37.2535 48 24C48 10.7464 37.2535 0 24 0ZM35.5339 18.0911C35.5499 18.3429 35.5499 18.6054 35.5499 18.8625C35.5499 26.7269 29.5607 35.7856 18.6161 35.7856C15.2411 35.7856 12.1125 34.8053 9.47678 33.1179C9.95893 33.1714 10.4196 33.1929 10.9125 33.1929C13.6982 33.1929 16.2589 32.2501 18.3 30.6535C15.6857 30.6 13.4893 28.8857 12.7393 26.5287C13.6554 26.6624 14.4804 26.6624 15.4232 26.4215C14.0771 26.1479 12.8672 25.4169 11.999 24.3525C11.1308 23.288 10.658 21.9557 10.6607 20.5822V20.5072C11.4482 20.9518 12.375 21.2249 13.3446 21.2624C12.5295 20.7193 11.861 19.9833 11.3984 19.1198C10.9359 18.2563 10.6935 17.2921 10.6929 16.3125C10.6929 15.2036 10.9821 14.1911 11.5018 13.3125C12.9959 15.1518 14.8603 16.6561 16.9739 17.7277C19.0875 18.7992 21.403 19.414 23.7696 19.5321C22.9287 15.4875 25.9499 12.2143 29.5822 12.2143C31.2965 12.2143 32.8393 12.9321 33.9269 14.0893C35.2713 13.8375 36.557 13.3339 37.7035 12.6589C37.259 14.0357 36.3269 15.1982 35.0894 15.9321C36.2894 15.8036 37.4464 15.4714 38.5179 15.0053C37.709 16.1947 36.6965 17.25 35.5339 18.0911Z" fill="white"/>
</g>
<defs>
<clipPath id="clip0_7_20">
<rect width="48" height="48" fill="white"/>
</clipPath>
</defs>
</svg>
