<svg width="12" height="16" viewBox="0 0 12 16" fill="none" xmlns="http://www.w3.org/2000/svg">
<path d="M11.5306 10.5306C11.4609 10.6005 11.3781 10.656 11.287 10.6939C11.1958 10.7317 11.0981 10.7512 10.9993 10.7512C10.9006 10.7512 10.8029 10.7317 10.7117 10.6939C10.6206 10.656 10.5378 10.6005 10.4681 10.5306L5.99997 6.06249L1.5306 10.5306C1.3897 10.6715 1.19861 10.7507 0.999348 10.7507C0.800091 10.7507 0.608994 10.6715 0.468098 10.5306C0.327202 10.3897 0.248047 10.1986 0.248047 9.99937C0.248047 9.80011 0.327202 9.60902 0.468098 9.46812L5.4681 4.46812C5.53778 4.3982 5.62057 4.34272 5.71173 4.30487C5.8029 4.26701 5.90064 4.24753 5.99935 4.24753C6.09806 4.24753 6.1958 4.26701 6.28696 4.30487C6.37813 4.34272 6.46092 4.3982 6.5306 4.46812L11.5306 9.46812C11.6005 9.5378 11.656 9.62059 11.6938 9.71176C11.7317 9.80292 11.7512 9.90066 11.7512 9.99937C11.7512 10.0981 11.7317 10.1958 11.6938 10.287C11.656 10.3781 11.6005 10.4609 11.5306 10.5306Z" fill="black"/>
</svg>
