<svg width="40" height="40" viewBox="0 0 40 40" fill="none" xmlns="http://www.w3.org/2000/svg">
<g clip-path="url(#clip0_8_2)">
<mask id="mask0_8_2" style="mask-type:luminance" maskUnits="userSpaceOnUse" x="0" y="0" width="40" height="40">
<path d="M40 0H0V40H40V0Z" fill="white"/>
</mask>
<g mask="url(#mask0_8_2)">
<path d="M29.355 25.86C31.7757 22.5567 32.86 18.4612 32.3907 14.3929C31.9217 10.3245 29.9338 6.58335 26.8245 3.91783C23.7154 1.25231 19.7145 -0.140984 15.6222 0.0166989C11.5299 0.174382 7.64807 1.87141 4.75327 4.76828C1.85849 7.66513 0.164235 11.5482 0.0094801 15.6406C-0.145275 19.733 1.25088 23.7329 3.91863 26.84C6.58638 29.9473 10.329 31.9328 14.3976 32.399C18.4663 32.8653 22.5611 31.778 25.8625 29.355H25.86C25.935 29.455 26.015 29.55 26.105 29.6425L35.73 39.2675C36.199 39.7365 36.8347 40.0003 37.498 40.0005C38.1612 40.0008 38.7973 39.7375 39.2663 39.2688C39.7355 38.8 39.9993 38.164 39.9993 37.501C39.9995 36.8378 39.7365 36.2015 39.2675 35.7325L29.6425 26.1075C29.5533 26.017 29.457 25.936 29.355 25.86ZM30 16.25C30 18.0557 29.6445 19.8437 28.9535 21.5119C28.2625 23.1801 27.2498 24.6959 25.9728 25.9728C24.696 27.2495 23.1802 28.2623 21.512 28.9533C19.8438 29.6443 18.0558 30 16.2501 30C14.4444 30 12.6564 29.6443 10.9882 28.9533C9.31997 28.2623 7.8042 27.2495 6.5274 25.9728C5.25057 24.6959 4.23777 23.1801 3.54677 21.5119C2.85577 19.8437 2.5001 18.0557 2.5001 16.25C2.5001 12.6033 3.94877 9.1059 6.5274 6.52728C9.10603 3.94865 12.6034 2.5 16.2501 2.5C19.8968 2.5 23.3942 3.94865 25.9728 6.52728C28.5515 9.1059 30 12.6033 30 16.25Z" fill="black"/>
</g>
</g>
<defs>
<clipPath id="clip0_8_2">
<rect width="40" height="40" fill="white"/>
</clipPath>
</defs>
</svg>
